<svg xmlns="http://www.w3.org/2000/svg" version="1.1" xmlns:xlink="http://www.w3.org/1999/xlink" xmlns:svgjs="http://svgjs.dev/svgjs" width="1440" height="560" preserveAspectRatio="none" viewBox="0 0 1440 560">
    <g mask="url(&quot;#SvgjsMask3040&quot;)" fill="none">
        <rect width="1440" height="560" x="0" y="0" fill="url(&quot;#SvgjsLinearGradient3041&quot;)"></rect>
        <path d="M1440 0L1036.3600000000001 0L1440 268.85z" fill="rgba(255, 255, 255, .1)"></path>
        <path d="M1036.3600000000001 0L1440 268.85L1440 348.31L541.0800000000002 0z" fill="rgba(255, 255, 255, .075)"></path>
        <path d="M541.08 0L1440 348.31L1440 453.69L457.29 0z" fill="rgba(255, 255, 255, .05)"></path>
        <path d="M457.2900000000001 0L1440 453.69L1440 476.3L456.94000000000005 0z" fill="rgba(255, 255, 255, .025)"></path>
        <path d="M0 560L307.39 560L0 361.66999999999996z" fill="rgba(0, 0, 0, .1)"></path>
        <path d="M0 361.66999999999996L307.39 560L524.71 560L0 216.89999999999995z" fill="rgba(0, 0, 0, .075)"></path>
        <path d="M0 216.89999999999998L524.71 560L570.4000000000001 560L0 203.20999999999998z" fill="rgba(0, 0, 0, .05)"></path>
        <path d="M0 203.20999999999998L570.4000000000001 560L736.8400000000001 560L0 148.03999999999996z" fill="rgba(0, 0, 0, .025)"></path>
    </g>
    <defs>
        <mask id="SvgjsMask3040">
            <rect width="1440" height="560" fill="#ffffff"></rect>
        </mask>
        <linearGradient x1="15.28%" y1="-39.29%" x2="84.72%" y2="139.29%" gradientUnits="userSpaceOnUse" id="SvgjsLinearGradient3041">
            <stop stop-color="rgba(41, 37, 186, 1)" offset="0.42"></stop>
            <stop stop-color="rgba(211, 32, 161, 1)" offset="0.94"></stop>
        </linearGradient>
    </defs>
</svg>